<mxfile host="app.diagrams.net" modified="2024-04-23T03:11:28.254Z" agent="Mozilla/5.0 (Windows NT 10.0; Win64; x64) AppleWebKit/537.36 (KHTML, like Gecko) Chrome/122.0.0.0 Safari/537.36" etag="EYsJ7MZC_MjsT6AsITr2" version="24.2.7" type="device">
  <diagram name="Trang-1" id="BWJFmopP48zYdoNZGAJ9">
    <mxGraphModel dx="1050" dy="557" grid="1" gridSize="10" guides="1" tooltips="1" connect="1" arrows="1" fold="1" page="1" pageScale="1" pageWidth="827" pageHeight="1169" math="0" shadow="0">
      <root>
        <mxCell id="0" />
        <mxCell id="1" parent="0" />
        <mxCell id="_FCymZ9S2tkuG4q3zd9y-1" value="Khách" style="shape=umlActor;verticalLabelPosition=bottom;verticalAlign=top;html=1;outlineConnect=0;" parent="1" vertex="1">
          <mxGeometry x="120" y="220" width="30" height="60" as="geometry" />
        </mxCell>
        <mxCell id="_FCymZ9S2tkuG4q3zd9y-3" value="" style="endArrow=classic;html=1;rounded=0;exitX=1;exitY=0.3333333333333333;exitDx=0;exitDy=0;exitPerimeter=0;" parent="1" source="_FCymZ9S2tkuG4q3zd9y-1" edge="1">
          <mxGeometry width="50" height="50" relative="1" as="geometry">
            <mxPoint x="200" y="250" as="sourcePoint" />
            <mxPoint x="230" y="240" as="targetPoint" />
          </mxGeometry>
        </mxCell>
        <mxCell id="1rK1nvjZ8ww3jmQm1_wA-1" style="edgeStyle=orthogonalEdgeStyle;rounded=0;orthogonalLoop=1;jettySize=auto;html=1;exitX=1;exitY=1;exitDx=0;exitDy=0;entryX=0;entryY=0.5;entryDx=0;entryDy=0;" edge="1" parent="1" source="_FCymZ9S2tkuG4q3zd9y-4" target="_FCymZ9S2tkuG4q3zd9y-19">
          <mxGeometry relative="1" as="geometry" />
        </mxCell>
        <mxCell id="1rK1nvjZ8ww3jmQm1_wA-2" style="edgeStyle=orthogonalEdgeStyle;rounded=0;orthogonalLoop=1;jettySize=auto;html=1;exitX=1;exitY=0;exitDx=0;exitDy=0;entryX=0;entryY=0.5;entryDx=0;entryDy=0;" edge="1" parent="1" source="_FCymZ9S2tkuG4q3zd9y-4" target="_FCymZ9S2tkuG4q3zd9y-6">
          <mxGeometry relative="1" as="geometry" />
        </mxCell>
        <mxCell id="_FCymZ9S2tkuG4q3zd9y-4" value="Đăng kí" style="ellipse;whiteSpace=wrap;html=1;" parent="1" vertex="1">
          <mxGeometry x="230" y="220" width="120" height="50" as="geometry" />
        </mxCell>
        <mxCell id="_FCymZ9S2tkuG4q3zd9y-6" value="Nhập thông tin" style="ellipse;whiteSpace=wrap;html=1;" parent="1" vertex="1">
          <mxGeometry x="400" y="170" width="120" height="50" as="geometry" />
        </mxCell>
        <mxCell id="_FCymZ9S2tkuG4q3zd9y-8" value="Nhậ&lt;span style=&quot;color: rgba(0, 0, 0, 0); font-family: monospace; font-size: 0px; text-align: start; text-wrap: nowrap;&quot;&gt;%3CmxGraphModel%3E%3Croot%3E%3CmxCell%20id%3D%220%22%2F%3E%3CmxCell%20id%3D%221%22%20parent%3D%220%22%2F%3E%3CmxCell%20id%3D%222%22%20value%3D%22Nh%E1%BA%ADp%20th%C3%B4ng%20tin%22%20style%3D%22ellipse%3BwhiteSpace%3Dwrap%3Bhtml%3D1%3B%22%20vertex%3D%221%22%20parent%3D%221%22%3E%3CmxGeometry%20x%3D%22414%22%20y%3D%22110%22%20width%3D%22120%22%20height%3D%2250%22%20as%3D%22geometry%22%2F%3E%3C%2FmxCell%3E%3C%2Froot%3E%3C%2FmxGraphModel%3E&lt;/span&gt;p SĐT&lt;span style=&quot;color: rgba(0, 0, 0, 0); font-family: monospace; font-size: 0px; text-align: start; text-wrap: nowrap;&quot;&gt;%3CmxGraphModel%3E%3Croot%3E%3CmxCell%20id%3D%220%22%2F%3E%3CmxCell%20id%3D%221%22%20parent%3D%220%22%2F%3E%3CmxCell%20id%3D%222%22%20value%3D%22Nh%E1%BA%ADp%20th%C3%B4ng%20tin%22%20style%3D%22ellipse%3BwhiteSpace%3Dwrap%3Bhtml%3D1%3B%22%20vertex%3D%221%22%20parent%3D%221%22%3E%3CmxGeometry%20x%3D%22414%22%20y%3D%22110%22%20width%3D%22120%22%20height%3D%2250%22%20as%3D%22geometry%22%2F%3E%3C%2FmxCell%3E%3C%2Froot%3E%3C%2FmxGraphModel%3E&lt;/span&gt;" style="ellipse;whiteSpace=wrap;html=1;" parent="1" vertex="1">
          <mxGeometry x="570" y="230" width="120" height="30" as="geometry" />
        </mxCell>
        <mxCell id="_FCymZ9S2tkuG4q3zd9y-9" value="Nhập họ tên" style="ellipse;whiteSpace=wrap;html=1;" parent="1" vertex="1">
          <mxGeometry x="580" y="120" width="120" height="30" as="geometry" />
        </mxCell>
        <mxCell id="_FCymZ9S2tkuG4q3zd9y-10" value="Nhập email" style="ellipse;whiteSpace=wrap;html=1;" parent="1" vertex="1">
          <mxGeometry x="590" y="180" width="120" height="30" as="geometry" />
        </mxCell>
        <mxCell id="_FCymZ9S2tkuG4q3zd9y-19" value="Xác thực số điện thoại" style="ellipse;whiteSpace=wrap;html=1;" parent="1" vertex="1">
          <mxGeometry x="400" y="270" width="120" height="40" as="geometry" />
        </mxCell>
        <mxCell id="_FCymZ9S2tkuG4q3zd9y-22" value="include" style="endArrow=open;endSize=12;dashed=1;html=1;rounded=0;exitX=0.963;exitY=0.325;exitDx=0;exitDy=0;entryX=0.5;entryY=1;entryDx=0;entryDy=0;exitPerimeter=0;" parent="1" source="_FCymZ9S2tkuG4q3zd9y-19" target="_FCymZ9S2tkuG4q3zd9y-8" edge="1">
          <mxGeometry width="160" relative="1" as="geometry">
            <mxPoint x="504" y="174" as="sourcePoint" />
            <mxPoint x="590" y="195" as="targetPoint" />
          </mxGeometry>
        </mxCell>
        <mxCell id="9kgSQbeulP_sz_xN8hX2-1" value="include" style="endArrow=open;endSize=12;dashed=1;html=1;rounded=0;exitX=0;exitY=0.5;exitDx=0;exitDy=0;entryX=1;entryY=1;entryDx=0;entryDy=0;" parent="1" source="_FCymZ9S2tkuG4q3zd9y-8" target="_FCymZ9S2tkuG4q3zd9y-6" edge="1">
          <mxGeometry width="160" relative="1" as="geometry">
            <mxPoint x="526" y="363" as="sourcePoint" />
            <mxPoint x="650" y="210" as="targetPoint" />
          </mxGeometry>
        </mxCell>
        <mxCell id="9kgSQbeulP_sz_xN8hX2-2" value="include" style="endArrow=open;endSize=12;dashed=1;html=1;rounded=0;exitX=0;exitY=0.5;exitDx=0;exitDy=0;entryX=1;entryY=0.5;entryDx=0;entryDy=0;" parent="1" source="_FCymZ9S2tkuG4q3zd9y-10" target="_FCymZ9S2tkuG4q3zd9y-6" edge="1">
          <mxGeometry width="160" relative="1" as="geometry">
            <mxPoint x="456" y="280" as="sourcePoint" />
            <mxPoint x="580" y="127" as="targetPoint" />
          </mxGeometry>
        </mxCell>
        <mxCell id="9kgSQbeulP_sz_xN8hX2-3" value="include" style="endArrow=open;endSize=12;dashed=1;html=1;rounded=0;exitX=0;exitY=0.5;exitDx=0;exitDy=0;entryX=0.973;entryY=0.252;entryDx=0;entryDy=0;entryPerimeter=0;" parent="1" source="_FCymZ9S2tkuG4q3zd9y-9" target="_FCymZ9S2tkuG4q3zd9y-6" edge="1">
          <mxGeometry width="160" relative="1" as="geometry">
            <mxPoint x="546" y="383" as="sourcePoint" />
            <mxPoint x="670" y="230" as="targetPoint" />
          </mxGeometry>
        </mxCell>
      </root>
    </mxGraphModel>
  </diagram>
</mxfile>
